<?xml version="1.0" encoding="UTF-8"?>
<!--Generator: Apple Native CoreSVG 175.5-->
<!DOCTYPE svg PUBLIC "-//W3C//DTD SVG 1.1//EN" "http://www.w3.org/Graphics/SVG/1.1/DTD/svg11.dtd">
<svg version="1.1" xmlns="http://www.w3.org/2000/svg" xmlns:xlink="http://www.w3.org/1999/xlink"
    width="498.047" height="498.291">
    <g>
        <rect height="498.291" opacity="0" width="498.047" x="0" y="0" />
        <path
            d="M249.023 498.047C385.254 498.047 498.047 385.01 498.047 249.023C498.047 112.793 385.01 0 248.779 0C112.793 0 0 112.793 0 249.023C0 385.01 113.037 498.047 249.023 498.047ZM249.023 384.277C175.781 384.277 114.258 322.51 114.258 249.268C114.258 175.781 175.537 114.258 249.023 114.258C322.266 114.258 384.033 176.025 384.033 249.268C384.033 322.754 322.51 384.277 249.023 384.277ZM249.023 344.727C301.27 344.727 344.238 301.514 344.238 249.268C344.238 197.266 301.025 153.809 249.023 153.809C196.777 153.809 153.809 197.021 153.809 249.268C153.809 301.27 197.266 344.727 249.023 344.727Z"
            fill="#28cd41" />
    </g>
</svg>